<svg xmlns="http://www.w3.org/2000/svg" viewBox="0 0 70 70"><title>cs-icon-heart</title><path d="M28.03346,23.76857a7.34085,7.34085,0,0,0-5.334,2.303,8.07694,8.07694,0,0,0-.01184,11.08568L34.44153,49.484a.79513.79513,0,0,0,1.10978,0q5.88137-6.155,11.7539-12.31477a8.07356,8.07356,0,0,0,0-11.08565,7.33611,7.33611,0,0,0-10.67994,0L35.0024,27.76612l-1.62288-1.69447a7.249,7.249,0,0,0-5.346-2.30306Z" style="fill:#ff9792"/><path d="M27.0994,20.29043a8.32511,8.32511,0,0,0-6.04917,2.61184,9.15988,9.15988,0,0,0-.01342,12.572L34.36665,49.45375a.90176.90176,0,0,0,1.25858,0q6.66993-6.98026,13.32985-13.96592a9.15606,9.15606,0,0,0,0-12.572,8.31972,8.31972,0,0,0-12.11189,0L35.00272,24.824,33.16225,22.9023a8.22092,8.22092,0,0,0-6.06276-2.61185Z" style="fill:none;stroke:#212121;stroke-linecap:round;stroke-linejoin:round"/><line x1="33.16225" y1="22.9023" x2="37.95761" y2="27.90439" style="fill:none;stroke:#212121;stroke-linecap:round;stroke-linejoin:round"/></svg>