<svg xmlns="http://www.w3.org/2000/svg" viewBox="0 0 606.70636 265.1218">
								<defs>
									<mask id="pricing-brands-dline">
									<path class="dline-mask" d="M580.35663,54.65337c.77875,37.19267,77.40338,210.29026-35.62457,210.2184-26.24567-.0167-26.22889-27.30318-35.62458-27.30318-10.86865,0-10.7944,27.30318-37.14581,27.30318-30.34668,0-61.025-12.14876-68.94656-32.89876-26.36349-6.19633-37.17081-14.16425-37.17081-14.16425-78.892-46.48921-42.71857-98.00006-20.81113-89.46522,18.8722,7.35234.81311,96.87581-92.28519,56.67967,5.446,20.98288-9.05505,79.88029-85.05,63.23143-30.70492-6.72678-53.79483-25.35407-115.0057-.53984-17.49586-8.41012-27.59155-19.30725-27.59155-19.30725-57.9736-48.13071-12.91865-173.10034,118.48957-114.997,38.65647,17.09232,86.16835,4.27254,104.09081-18.51391,7.08687-7.25428,7.34858-23.422,7.34858-23.422,5.559-38.45755-51.001-103.5-145.31841-52.42625" style="fill:none;stroke:white;stroke-linecap:round;stroke-linejoin:round;stroke-width:2px;"></path>
									</mask>
								</defs>
								<g mask="url(#pricing-brands-dline)">
									<path d="M580.35663,54.65337c.77875,37.19267,77.40338,210.29026-35.62457,210.2184-26.24567-.0167-26.22889-27.30318-35.62458-27.30318-10.86865,0-10.7944,27.30318-37.14581,27.30318-30.34668,0-61.025-12.14876-68.94656-32.89876-26.36349-6.19633-37.17081-14.16425-37.17081-14.16425-78.892-46.48921-42.71857-98.00006-20.81113-89.46522,18.8722,7.35234.81311,96.87581-92.28519,56.67967,5.446,20.98288-9.05505,79.88029-85.05,63.23143-30.70492-6.72678-53.79483-25.35407-115.0057-.53984-17.49586-8.41012-27.59155-19.30725-27.59155-19.30725-57.9736-48.13071-12.91865-173.10034,118.48957-114.997,38.65647,17.09232,86.16835,4.27254,104.09081-18.51391,7.08687-7.25428,7.34858-23.422,7.34858-23.422,5.559-38.45755-51.001-103.5-145.31841-52.42625" style="fill:none;stroke:#212121;stroke-linecap:round;stroke-linejoin:round;stroke-width:0.5px;stroke-dasharray:6"></path>
								</g>
							</svg>